<?xml version="1.0" standalone="no"?>
<!DOCTYPE svg PUBLIC "-//W3C//DTD SVG 20010904//EN"
 "http://www.w3.org/TR/2001/REC-SVG-20010904/DTD/svg10.dtd">
<svg version="1.0" xmlns="http://www.w3.org/2000/svg"
 width="560.000000pt" height="560.000000pt" viewBox="0 0 560.000000 560.000000"
 preserveAspectRatio="xMidYMid meet">
<metadata>
Created by potrace 1.11, written by Peter Selinger 2001-2013
</metadata>
<g transform="translate(0.000000,560.000000) scale(0.100000,-0.100000)"
fill="#000000" stroke="none">
<path d="M2719 4776 c-2 -2 -37 -7 -76 -10 -246 -23 -484 -90 -683 -194 -371
-193 -597 -502 -653 -894 l-6 -38 57 -1 c97 -1 795 0 832 1 33 1 37 5 69 71
82 167 267 279 501 305 272 30 511 -40 628 -185 93 -115 110 -182 111 -443 l2
-198 -38 -1 c-21 -1 -54 -2 -73 -4 -19 -1 -89 -5 -155 -9 -66 -4 -140 -9 -165
-11 -25 -2 -94 -6 -155 -10 -222 -12 -387 -24 -435 -30 -19 -2 -60 -7 -90 -10
-30 -4 -85 -13 -122 -21 -37 -7 -81 -16 -96 -19 -16 -2 -69 -16 -118 -30 -592
-169 -894 -533 -892 -1075 2 -393 152 -708 441 -923 118 -89 316 -170 492
-204 111 -21 376 -25 500 -7 200 28 431 116 565 216 102 76 235 223 279 310
13 25 59 40 90 30 8 -3 11 -80 11 -256 l0 -253 448 1 447 1 0 1375 c0 756 -3
1402 -8 1435 -57 451 -317 786 -741 955 -114 45 -268 85 -406 105 -19 3 -53 7
-75 11 -44 6 -480 15 -486 10z m780 -2385 c-3 -289 -36 -391 -185 -570 -35
-42 -136 -114 -213 -152 -106 -51 -224 -79 -361 -86 -392 -18 -643 163 -642
463 1 129 36 217 119 300 28 28 73 63 100 79 59 33 200 80 267 89 27 4 52 9
55 10 6 4 59 8 271 21 144 10 216 14 340 20 69 4 126 8 127 9 1 1 29 3 63 4
l61 3 -2 -190z"/>
</g>
</svg>
